<?xml version="1.0" encoding="utf-8"?>
<!-- Generator: Adobe Illustrator 27.9.0, SVG Export Plug-In . SVG Version: 6.00 Build 0)  -->
<svg version="1.1" id="Layer_1" xmlns="http://www.w3.org/2000/svg" xmlns:xlink="http://www.w3.org/1999/xlink" x="0px" y="0px"
	 viewBox="0 0 252 239" enable-background="new 0 0 252 239" xml:space="preserve">
<path fill="#231F20" d="M23.01,215.25c-3.15,0-5.88-0.79-8.18-2.37c-2.27-1.61-3.88-3.79-4.83-6.55l5.47-2.02
	c0.72,1.61,1.76,2.91,3.1,3.89c1.35,0.95,2.89,1.43,4.63,1.43c1.81,0,3.24-0.41,4.29-1.23c1.08-0.82,1.63-2,1.63-3.55
	c0-0.62-0.15-1.2-0.44-1.73c-0.3-0.56-0.64-1.02-1.03-1.38c-0.36-0.36-0.92-0.72-1.68-1.08c-0.76-0.36-1.4-0.64-1.92-0.84
	c-0.53-0.23-1.3-0.51-2.32-0.84c-1.31-0.46-2.33-0.82-3.06-1.08c-0.69-0.26-1.59-0.69-2.71-1.28c-1.08-0.62-1.92-1.25-2.51-1.87
	c-0.56-0.62-1.07-1.45-1.53-2.46c-0.43-1.05-0.64-2.2-0.64-3.45c0-2.63,1.02-4.83,3.06-6.6c2.04-1.77,4.8-2.66,8.28-2.66
	c2.89,0,5.29,0.69,7.19,2.07c1.91,1.35,3.19,3.12,3.84,5.32l-5.32,1.77c-1.05-2.36-3.09-3.55-6.11-3.55c-1.54,0-2.76,0.33-3.65,0.99
	c-0.85,0.62-1.28,1.53-1.28,2.71c0,0.79,0.33,1.49,0.99,2.12c0.69,0.62,1.41,1.1,2.17,1.43c0.79,0.3,1.94,0.69,3.45,1.18
	c0.99,0.36,1.72,0.64,2.22,0.84c0.53,0.16,1.25,0.46,2.17,0.89c0.92,0.43,1.64,0.82,2.17,1.18c0.53,0.33,1.12,0.79,1.77,1.38
	c0.69,0.59,1.22,1.22,1.58,1.87c0.36,0.62,0.67,1.38,0.94,2.27c0.26,0.85,0.39,1.79,0.39,2.81c0,3.22-1.15,5.76-3.45,7.64
	C29.42,214.33,26.52,215.25,23.01,215.25z"/>
<path fill="#231F20" d="M51.94,215.25c-3.58,0-6.42-1.17-8.53-3.5c-2.07-2.37-3.1-5.6-3.1-9.71c0-4.07,1.05-7.28,3.15-9.61
	c2.1-2.36,4.93-3.55,8.48-3.55c3.22,0,5.85,1,7.88,3.01c2.07,2,3.1,4.94,3.1,8.82c0,1.35-0.07,2.53-0.2,3.55H46.03
	c0.1,1.77,0.71,3.2,1.82,4.29c1.15,1.08,2.51,1.63,4.09,1.63c2.23,0,4.01-0.87,5.32-2.61l3.65,3.74
	C58.71,213.93,55.72,215.25,51.94,215.25z M46.08,199.48h11.14c-0.13-1.81-0.69-3.17-1.68-4.09c-0.99-0.95-2.18-1.43-3.6-1.43
	c-1.64,0-3.01,0.46-4.09,1.38C46.8,196.22,46.21,197.6,46.08,199.48z"/>
<path fill="#231F20" d="M69.31,214.65v-25.18h5.77v2.61c1.02-2.13,2.74-3.2,5.17-3.2c1.77,0,3.33,0.57,4.68,1.72l-0.84,5.27
	c-1.25-0.89-2.68-1.33-4.29-1.33c-1.31,0-2.43,0.46-3.35,1.38s-1.38,2.46-1.38,4.63v14.09H69.31z"/>
<path fill="#231F20" d="M97.16,214.65l-9.22-25.18h5.86l5.57,15.72c0.39,1.31,0.62,2.07,0.69,2.27c0.2-0.85,0.43-1.61,0.69-2.27
	l5.47-15.72h5.86l-9.21,25.18H97.16z"/>
<path fill="#231F20" d="M126.26,215.25c-3.58,0-6.42-1.17-8.53-3.5c-2.07-2.37-3.1-5.6-3.1-9.71c0-4.07,1.05-7.28,3.15-9.61
	c2.1-2.36,4.93-3.55,8.48-3.55c3.22,0,5.85,1,7.88,3.01c2.07,2,3.1,4.94,3.1,8.82c0,1.35-0.07,2.53-0.2,3.55h-16.71
	c0.1,1.77,0.71,3.2,1.82,4.29c1.15,1.08,2.51,1.63,4.09,1.63c2.23,0,4.01-0.87,5.32-2.61l3.65,3.74
	C133.02,213.93,130.04,215.25,126.26,215.25z M120.39,199.48h11.14c-0.13-1.81-0.69-3.17-1.68-4.09c-0.99-0.95-2.19-1.43-3.6-1.43
	c-1.64,0-3.01,0.46-4.09,1.38C121.11,196.22,120.52,197.6,120.39,199.48z"/>
<path fill="#231F20" d="M143.13,214.65v-25.18h5.77v2.61c1.02-2.13,2.74-3.2,5.17-3.2c1.77,0,3.33,0.57,4.68,1.72l-0.84,5.27
	c-1.25-0.89-2.68-1.33-4.29-1.33c-1.31,0-2.43,0.46-3.35,1.38s-1.38,2.46-1.38,4.63v14.09H143.13z"/>
<path fill="#231F20" d="M174.73,215.25c-2.43,0-4.34-0.87-5.72-2.61v9.26l-5.76,2.66v-35.09h5.76v1.92c1.38-1.68,3.3-2.51,5.77-2.51
	c3.19,0,5.7,1.17,7.54,3.5c1.87,2.3,2.81,5.54,2.81,9.71c0,4.07-0.95,7.29-2.86,9.66C180.37,214.08,177.85,215.25,174.73,215.25z
	 M173.9,209.73c1.74,0,3.09-0.66,4.04-1.97s1.43-3.2,1.43-5.67c0-2.33-0.48-4.21-1.43-5.62c-0.95-1.41-2.3-2.12-4.04-2.12
	c-2.14,0-3.76,0.82-4.88,2.46v10.45C170.17,208.9,171.79,209.73,173.9,209.73z"/>
<path fill="#231F20" d="M201.11,215.25c-3.55,0-6.36-1.17-8.43-3.5c-2.07-2.33-3.1-5.55-3.1-9.66c0-4.11,1.04-7.33,3.1-9.66
	c2.07-2.36,4.88-3.55,8.43-3.55s6.36,1.18,8.43,3.55c2.1,2.33,3.15,5.55,3.15,9.66c0,4.11-1.04,7.33-3.1,9.66
	C207.52,214.08,204.7,215.25,201.11,215.25z M201.11,209.73c1.81,0,3.22-0.67,4.24-2.02c1.05-1.35,1.58-3.22,1.58-5.62
	c0-2.4-0.53-4.29-1.58-5.67c-1.02-1.38-2.43-2.07-4.24-2.07c-1.74,0-3.14,0.71-4.19,2.12c-1.05,1.38-1.58,3.25-1.58,5.62
	c0,2.36,0.51,4.24,1.53,5.62C197.93,209.05,199.34,209.73,201.11,209.73z"/>
<path fill="#231F20" d="M228.09,215.25c-3.22,0-5.77-1.17-7.64-3.5c-1.87-2.33-2.81-5.57-2.81-9.71c0-4.04,0.97-7.24,2.91-9.61
	c1.94-2.36,4.45-3.55,7.54-3.55c2.43,0,4.32,0.79,5.67,2.37v-9.56l5.77-2.61v35.58h-5.77v-1.82
	C232.51,214.44,230.62,215.25,228.09,215.25z M228.97,209.73c2.13,0,3.73-0.81,4.78-2.41v-10.55c-1.08-1.61-2.68-2.41-4.78-2.41
	c-1.77,0-3.15,0.67-4.14,2.02c-0.95,1.31-1.43,3.2-1.43,5.67c0,2.33,0.49,4.21,1.48,5.62C225.87,209.04,227.23,209.73,228.97,209.73
	z"/>
</svg>
