<?xml version="1.0" encoding="utf-8"?>
<!-- Generator: Adobe Illustrator 27.9.0, SVG Export Plug-In . SVG Version: 6.00 Build 0)  -->
<svg version="1.1" id="Layer_1" xmlns="http://www.w3.org/2000/svg" xmlns:xlink="http://www.w3.org/1999/xlink" x="0px" y="0px"
	 viewBox="0 0 252 239" enable-background="new 0 0 252 239" xml:space="preserve">
<path fill="#FFFFFF" d="M23,215.2c-3.2,0-5.9-0.8-8.2-2.4c-2.3-1.6-3.9-3.8-4.8-6.6l5.5-2c0.7,1.6,1.8,2.9,3.1,3.9
	c1.3,1,2.9,1.4,4.6,1.4c1.8,0,3.2-0.4,4.3-1.2c1.1-0.8,1.6-2,1.6-3.5c0-0.6-0.1-1.2-0.4-1.7c-0.3-0.6-0.6-1-1-1.4s-0.9-0.7-1.7-1.1
	c-0.8-0.4-1.4-0.6-1.9-0.8s-1.3-0.5-2.3-0.8c-1.3-0.5-2.3-0.8-3.1-1.1c-0.7-0.3-1.6-0.7-2.7-1.3s-1.9-1.2-2.5-1.9
	c-0.6-0.6-1.1-1.4-1.5-2.5s-0.6-2.2-0.6-3.5c0-2.6,1-4.8,3.1-6.6c2-1.8,4.8-2.7,8.3-2.7c2.9,0,5.3,0.7,7.2,2.1
	c1.9,1.3,3.2,3.1,3.8,5.3l-5.3,1.8c-1.1-2.4-3.1-3.5-6.1-3.5c-1.5,0-2.8,0.3-3.6,1c-0.9,0.6-1.3,1.5-1.3,2.7c0,0.8,0.3,1.5,1,2.1
	s1.4,1.1,2.2,1.4c0.8,0.3,1.9,0.7,3.4,1.2c1,0.4,1.7,0.6,2.2,0.8s1.2,0.5,2.2,0.9c0.9,0.4,1.6,0.8,2.2,1.2c0.5,0.3,1.1,0.8,1.8,1.4
	c0.7,0.6,1.2,1.2,1.6,1.9c0.4,0.6,0.7,1.4,0.9,2.3c0.3,0.9,0.4,1.8,0.4,2.8c0,3.2-1.1,5.8-3.4,7.6C29.4,214.3,26.5,215.2,23,215.2z"
	/>
<path fill="#FFFFFF" d="M51.9,215.2c-3.6,0-6.4-1.2-8.5-3.5c-2.1-2.4-3.1-5.6-3.1-9.7c0-4.1,1.1-7.3,3.2-9.6
	c2.1-2.4,4.9-3.5,8.5-3.5c3.2,0,5.8,1,7.9,3c2.1,2,3.1,4.9,3.1,8.8c0,1.3-0.1,2.5-0.2,3.5H46c0.1,1.8,0.7,3.2,1.8,4.3
	s2.5,1.6,4.1,1.6c2.2,0,4-0.9,5.3-2.6l3.6,3.7C58.7,213.9,55.7,215.2,51.9,215.2z M46.1,199.5h11.1c-0.1-1.8-0.7-3.2-1.7-4.1
	c-1-1-2.2-1.4-3.6-1.4c-1.6,0-3,0.5-4.1,1.4C46.8,196.2,46.2,197.6,46.1,199.5z"/>
<path fill="#FFFFFF" d="M69.3,214.7v-25.2h5.8v2.6c1-2.1,2.7-3.2,5.2-3.2c1.8,0,3.3,0.6,4.7,1.7l-0.8,5.3c-1.2-0.9-2.7-1.3-4.3-1.3
	c-1.3,0-2.4,0.5-3.4,1.4s-1.4,2.5-1.4,4.6v14.1L69.3,214.7L69.3,214.7z"/>
<path fill="#FFFFFF" d="M97.2,214.7L88,189.5h5.9l5.6,15.7c0.4,1.3,0.6,2.1,0.7,2.3c0.2-0.9,0.4-1.6,0.7-2.3l5.5-15.7h5.9l-9.2,25.2
	H97.2z"/>
<path fill="#FFFFFF" d="M126.3,215.2c-3.6,0-6.4-1.2-8.5-3.5c-2.1-2.4-3.1-5.6-3.1-9.7c0-4.1,1.1-7.3,3.2-9.6
	c2.1-2.4,4.9-3.5,8.5-3.5c3.2,0,5.8,1,7.9,3s3.1,4.9,3.1,8.8c0,1.3-0.1,2.5-0.2,3.5h-16.7c0.1,1.8,0.7,3.2,1.8,4.3
	c1.1,1.1,2.5,1.6,4.1,1.6c2.2,0,4-0.9,5.3-2.6l3.6,3.7C133,213.9,130,215.2,126.3,215.2z M120.4,199.5h11.1
	c-0.1-1.8-0.7-3.2-1.7-4.1c-1-1-2.2-1.4-3.6-1.4c-1.6,0-3,0.5-4.1,1.4C121.1,196.2,120.5,197.6,120.4,199.5z"/>
<path fill="#FFFFFF" d="M143.1,214.7v-25.2h5.8v2.6c1-2.1,2.7-3.2,5.2-3.2c1.8,0,3.3,0.6,4.7,1.7l-0.8,5.3c-1.2-0.9-2.7-1.3-4.3-1.3
	c-1.3,0-2.4,0.5-3.4,1.4s-1.4,2.5-1.4,4.6v14.1L143.1,214.7L143.1,214.7z"/>
<path fill="#FFFFFF" d="M174.7,215.2c-2.4,0-4.3-0.9-5.7-2.6v9.3l-5.8,2.7v-35.1h5.8v1.9c1.4-1.7,3.3-2.5,5.8-2.5
	c3.2,0,5.7,1.2,7.5,3.5c1.9,2.3,2.8,5.5,2.8,9.7c0,4.1-1,7.3-2.9,9.7C180.4,214.1,177.9,215.2,174.7,215.2z M173.9,209.7
	c1.7,0,3.1-0.7,4-2s1.4-3.2,1.4-5.7c0-2.3-0.5-4.2-1.4-5.6c-1-1.4-2.3-2.1-4-2.1c-2.1,0-3.8,0.8-4.9,2.5v10.4
	C170.2,208.9,171.8,209.7,173.9,209.7z"/>
<path fill="#FFFFFF" d="M201.1,215.2c-3.5,0-6.4-1.2-8.4-3.5c-2.1-2.3-3.1-5.6-3.1-9.7c0-4.1,1-7.3,3.1-9.7s4.9-3.5,8.4-3.5
	s6.4,1.2,8.4,3.5c2.1,2.3,3.2,5.6,3.2,9.7c0,4.1-1,7.3-3.1,9.7C207.5,214.1,204.7,215.2,201.1,215.2z M201.1,209.7
	c1.8,0,3.2-0.7,4.2-2c1.1-1.3,1.6-3.2,1.6-5.6c0-2.4-0.5-4.3-1.6-5.7c-1-1.4-2.4-2.1-4.2-2.1c-1.7,0-3.1,0.7-4.2,2.1
	c-1.1,1.4-1.6,3.3-1.6,5.6c0,2.4,0.5,4.2,1.5,5.6C197.9,209.1,199.3,209.7,201.1,209.7z"/>
<path fill="#FFFFFF" d="M228.1,215.2c-3.2,0-5.8-1.2-7.6-3.5c-1.9-2.3-2.8-5.6-2.8-9.7c0-4,1-7.2,2.9-9.6c1.9-2.4,4.5-3.5,7.5-3.5
	c2.4,0,4.3,0.8,5.7,2.4v-9.6l5.8-2.6v35.6h-5.8v-1.8C232.5,214.4,230.6,215.2,228.1,215.2z M229,209.7c2.1,0,3.7-0.8,4.8-2.4v-10.5
	c-1.1-1.6-2.7-2.4-4.8-2.4c-1.8,0-3.2,0.7-4.1,2c-1,1.3-1.4,3.2-1.4,5.7c0,2.3,0.5,4.2,1.5,5.6C225.9,209,227.2,209.7,229,209.7z"/>
</svg>
